<?xml version="1.0" standalone="no"?><!DOCTYPE svg PUBLIC "-//W3C//DTD SVG 1.1//EN" "http://www.w3.org/Graphics/SVG/1.1/DTD/svg11.dtd"><svg t="1622787957261" class="icon" viewBox="0 0 1024 1024" version="1.1" xmlns="http://www.w3.org/2000/svg" p-id="5471" xmlns:xlink="http://www.w3.org/1999/xlink" width="48" height="48"><defs><style type="text/css"></style></defs><path d="M676.124444 0.967111L216.632889 0C144.042667 0 85.333333 57.287111 85.333333 128v768C85.333333 966.712889 144.042667 1024 216.632889 1024h590.734222C879.957333 1024 938.666667 966.712889 938.666667 896V256.113778L676.124444 0.967111z m32.938667 767.089778H315.107556a32.369778 32.369778 0 0 1-32.824889-31.971556c0-17.692444 14.677333-31.971556 32.824889-31.971555h393.784888c18.147556 0 32.824889 14.279111 32.824889 31.971555a32.142222 32.142222 0 0 1-32.654222 31.971556z m0-191.943111H315.107556a32.369778 32.369778 0 0 1-32.824889-31.971556c0-17.635556 14.677333-31.914667 32.824889-31.914666h393.784888c18.147556 0 32.824889 14.222222 32.824889 31.914666a32.199111 32.199111 0 0 1-32.654222 31.971556z m32.768-320c-36.295111 0-65.706667-28.728889-65.706667-64.056889v-128l196.949334 192.056889H741.831111z" fill="#1A5C9F" p-id="5472"></path></svg>