<?xml version="1.0" standalone="no"?><!DOCTYPE svg PUBLIC "-//W3C//DTD SVG 1.1//EN" "http://www.w3.org/Graphics/SVG/1.1/DTD/svg11.dtd"><svg t="1622531647132" class="icon" viewBox="0 0 1024 1024" version="1.1" xmlns="http://www.w3.org/2000/svg" p-id="1209" xmlns:xlink="http://www.w3.org/1999/xlink" width="48" height="48"><defs><style type="text/css"></style></defs><path d="M0 512a512 512 0 1 0 1024 0A512 512 0 1 0 0 512z" fill="#2971FF" p-id="1210"></path><path d="M387.392 527.488a48 48 0 1 1 48 48 48 48 0 0 1-48-48z m368.8 80.16a48 48 0 0 1-48-48v-48a192.416 192.416 0 1 0-192.416 192.416h32a32 32 0 0 1 0 64h-32a256.544 256.544 0 0 1-237.952-160.352h-2.784a48 48 0 0 1-48-48v-64a47.456 47.456 0 0 1 40.096-46.496 256.544 256.544 0 0 1 497.056 0 47.456 47.456 0 0 1 40.096 46.496v64a48 48 0 0 1-48.128 47.936z m-208.448-80.16a48 48 0 1 1 48 48 48 48 0 0 1-48.032-48z" fill="#FFFFFF" p-id="1211"></path></svg>